<svg width="50" height="50" viewBox="0 0 50 50" fill="none" xmlns="http://www.w3.org/2000/svg">
<path d="M45.4365 8.20832C42.2282 16.2083 34.1865 27.0833 27.4574 32.4792L23.3532 35.7708C22.8324 36.1458 22.3115 36.4792 21.7282 36.7083C21.7282 36.3333 21.7074 35.9167 21.6449 35.5208C21.4157 33.7708 20.624 32.1458 19.2282 30.75C17.8115 29.3333 16.0824 28.5 14.3115 28.2708C13.8949 28.25 13.4782 28.2083 13.0615 28.25C13.2907 27.6042 13.6449 27 14.0824 26.5L17.3324 22.3958C22.7074 15.6667 33.624 7.58332 41.6032 4.39582C42.8324 3.93749 44.0199 4.27082 44.7699 5.04166C45.5615 5.81249 45.9365 6.99999 45.4365 8.20832Z" stroke="#E27244" stroke-width="3.125" stroke-linecap="round" stroke-linejoin="round"/>
<path d="M21.7293 36.7084C21.7293 39.0001 20.8543 41.1876 19.2085 42.8543C17.9377 44.1251 16.2085 45.0001 14.146 45.2709L9.021 45.8334C6.22933 46.1459 3.8335 43.7709 4.16683 40.9376L4.72933 35.8126C5.22933 31.2501 9.04183 28.3334 13.0835 28.2501C13.5002 28.2293 13.9377 28.2501 14.3335 28.2709C16.1043 28.5001 17.8335 29.3126 19.2502 30.7501C20.646 32.1459 21.4377 33.7709 21.6668 35.5209C21.6877 35.9167 21.7293 36.3126 21.7293 36.7084Z" stroke="#E27244" stroke-width="3.125" stroke-linecap="round" stroke-linejoin="round"/>
<path d="M29.6667 30.1458C29.6667 24.7083 25.25 20.2916 19.8125 20.2916" stroke="#E27244" stroke-width="3.125" stroke-linecap="round" stroke-linejoin="round"/>
</svg>
