<svg width="50" height="50" viewBox="0 0 50 50" fill="none" xmlns="http://www.w3.org/2000/svg">
<path d="M41.6667 29.1667C43.9679 29.1667 45.8333 27.3012 45.8333 25C45.8333 22.6989 43.9679 20.8334 41.6667 20.8334C39.3655 20.8334 37.5 22.6989 37.5 25C37.5 27.3012 39.3655 29.1667 41.6667 29.1667Z" stroke="#F3BC4C" stroke-width="3.125" stroke-linecap="round" stroke-linejoin="round"/>
<path d="M41.6667 12.5C43.9679 12.5 45.8333 10.6345 45.8333 8.33329C45.8333 6.03211 43.9679 4.16663 41.6667 4.16663C39.3655 4.16663 37.5 6.03211 37.5 8.33329C37.5 10.6345 39.3655 12.5 41.6667 12.5Z" stroke="#F3BC4C" stroke-width="3.125" stroke-linecap="round" stroke-linejoin="round"/>
<path d="M41.6667 45.8333C43.9679 45.8333 45.8333 43.9679 45.8333 41.6667C45.8333 39.3655 43.9679 37.5 41.6667 37.5C39.3655 37.5 37.5 39.3655 37.5 41.6667C37.5 43.9679 39.3655 45.8333 41.6667 45.8333Z" stroke="#F3BC4C" stroke-width="3.125" stroke-linecap="round" stroke-linejoin="round"/>
<path d="M8.33366 29.1667C10.6348 29.1667 12.5003 27.3012 12.5003 25C12.5003 22.6989 10.6348 20.8334 8.33366 20.8334C6.03247 20.8334 4.16699 22.6989 4.16699 25C4.16699 27.3012 6.03247 29.1667 8.33366 29.1667Z" stroke="#F3BC4C" stroke-width="3.125" stroke-linecap="round" stroke-linejoin="round"/>
<path d="M12.5 25H37.5" stroke="#F3BC4C" stroke-width="3.125" stroke-linecap="round" stroke-linejoin="round"/>
<path d="M37.5003 8.33337H29.167C25.0003 8.33337 22.917 10.4167 22.917 14.5834V35.4167C22.917 39.5834 25.0003 41.6667 29.167 41.6667H37.5003" stroke="#F3BC4C" stroke-width="3.125" stroke-linecap="round" stroke-linejoin="round"/>
</svg>
