<svg width="47" height="47" viewBox="0 0 47 47" fill="none" xmlns="http://www.w3.org/2000/svg">
<path d="M37.208 44.5517C36.4051 44.5517 35.7393 43.8858 35.7393 43.0829V21.5413C35.7393 20.7383 36.4051 20.0725 37.208 20.0725C38.0109 20.0725 38.6768 20.7383 38.6768 21.5413V43.0829C38.6768 43.8858 38.0109 44.5517 37.208 44.5517Z" fill="url(#paint0_linear_1_352)"/>
<path d="M37.208 15.1767C36.4051 15.1767 35.7393 14.5108 35.7393 13.7079V3.91626C35.7393 3.11334 36.4051 2.44751 37.208 2.44751C38.0109 2.44751 38.6768 3.11334 38.6768 3.91626V13.7079C38.6768 14.5108 38.0109 15.1767 37.208 15.1767Z" fill="url(#paint1_linear_1_352)"/>
<path d="M23.5 44.5517C22.6971 44.5517 22.0312 43.8858 22.0312 43.0829V33.2913C22.0312 32.4883 22.6971 31.8225 23.5 31.8225C24.3029 31.8225 24.9688 32.4883 24.9688 33.2913V43.0829C24.9688 43.8858 24.3029 44.5517 23.5 44.5517Z" fill="url(#paint2_linear_1_352)"/>
<path d="M23.5 26.9267C22.6971 26.9267 22.0312 26.2608 22.0312 25.4579V3.91626C22.0312 3.11334 22.6971 2.44751 23.5 2.44751C24.3029 2.44751 24.9688 3.11334 24.9688 3.91626V25.4579C24.9688 26.2608 24.3029 26.9267 23.5 26.9267Z" fill="url(#paint3_linear_1_352)"/>
<path d="M9.79199 44.5517C8.98908 44.5517 8.32324 43.8858 8.32324 43.0829V21.5413C8.32324 20.7383 8.98908 20.0725 9.79199 20.0725C10.5949 20.0725 11.2607 20.7383 11.2607 21.5413V43.0829C11.2607 43.8858 10.5949 44.5517 9.79199 44.5517Z" fill="url(#paint4_linear_1_352)"/>
<path d="M9.79199 15.1767C8.98908 15.1767 8.32324 14.5108 8.32324 13.7079V3.91626C8.32324 3.11334 8.98908 2.44751 9.79199 2.44751C10.5949 2.44751 11.2607 3.11334 11.2607 3.91626V13.7079C11.2607 14.5108 10.5949 15.1767 9.79199 15.1767Z" fill="url(#paint5_linear_1_352)"/>
<path d="M13.7083 23.01H5.875C5.07208 23.01 4.40625 22.3442 4.40625 21.5413C4.40625 20.7383 5.07208 20.0725 5.875 20.0725H13.7083C14.5113 20.0725 15.1771 20.7383 15.1771 21.5413C15.1771 22.3442 14.5113 23.01 13.7083 23.01Z" fill="url(#paint6_linear_1_352)"/>
<path d="M41.1253 23.01H33.292C32.4891 23.01 31.8232 22.3442 31.8232 21.5413C31.8232 20.7383 32.4891 20.0725 33.292 20.0725H41.1253C41.9282 20.0725 42.5941 20.7383 42.5941 21.5413C42.5941 22.3442 41.9282 23.01 41.1253 23.01Z" fill="url(#paint7_linear_1_352)"/>
<path d="M27.4163 26.9275H19.583C18.7801 26.9275 18.1143 26.2617 18.1143 25.4587C18.1143 24.6558 18.7801 23.99 19.583 23.99H27.4163C28.2193 23.99 28.8851 24.6558 28.8851 25.4587C28.8851 26.2617 28.2193 26.9275 27.4163 26.9275Z" fill="url(#paint8_linear_1_352)"/>
<defs>
<linearGradient id="paint0_linear_1_352" x1="37.208" y1="20.0725" x2="37.208" y2="44.5517" gradientUnits="userSpaceOnUse">
<stop offset="1" stop-color="#704AF2"/>
</linearGradient>
<linearGradient id="paint1_linear_1_352" x1="37.208" y1="2.44751" x2="37.208" y2="15.1767" gradientUnits="userSpaceOnUse">
<stop offset="1" stop-color="#704AF2"/>
</linearGradient>
<linearGradient id="paint2_linear_1_352" x1="23.5" y1="31.8225" x2="23.5" y2="44.5517" gradientUnits="userSpaceOnUse">
<stop offset="1" stop-color="#704AF2"/>
</linearGradient>
<linearGradient id="paint3_linear_1_352" x1="23.5" y1="2.44751" x2="23.5" y2="26.9267" gradientUnits="userSpaceOnUse">
<stop offset="1" stop-color="#704AF2"/>
</linearGradient>
<linearGradient id="paint4_linear_1_352" x1="9.79199" y1="20.0725" x2="9.79199" y2="44.5517" gradientUnits="userSpaceOnUse">
<stop offset="1" stop-color="#704AF2"/>
</linearGradient>
<linearGradient id="paint5_linear_1_352" x1="9.79199" y1="2.44751" x2="9.79199" y2="15.1767" gradientUnits="userSpaceOnUse">
<stop offset="1" stop-color="#704AF2"/>
</linearGradient>
<linearGradient id="paint6_linear_1_352" x1="9.79167" y1="20.0725" x2="9.79167" y2="23.01" gradientUnits="userSpaceOnUse">
<stop offset="1" stop-color="#704AF2"/>
</linearGradient>
<linearGradient id="paint7_linear_1_352" x1="37.2087" y1="20.0725" x2="37.2087" y2="23.01" gradientUnits="userSpaceOnUse">
<stop offset="1" stop-color="#704AF2"/>
</linearGradient>
<linearGradient id="paint8_linear_1_352" x1="23.4997" y1="23.99" x2="23.4997" y2="26.9275" gradientUnits="userSpaceOnUse">
<stop offset="1" stop-color="#704AF2"/>
</linearGradient>
</defs>
</svg>
