<svg width="50" height="50" viewBox="0 0 50 50" fill="none" xmlns="http://www.w3.org/2000/svg">
<path d="M35.3535 25.5209V34.8959C35.3535 42.7084 32.2285 45.8334 24.416 45.8334H15.041C7.22852 45.8334 4.10352 42.7084 4.10352 34.8959V25.5209C4.10352 17.7084 7.22852 14.5834 15.041 14.5834H24.416C32.2285 14.5834 35.3535 17.7084 35.3535 25.5209Z" stroke="#DF5E63" stroke-width="3.125" stroke-linecap="round" stroke-linejoin="round"/>
<path d="M45.7712 15.625C45.7712 21.6041 41.2087 26.5 35.3545 27.0208V25.5208C35.3545 17.7083 32.2295 14.5833 24.417 14.5833H22.917C23.4378 8.72913 28.3337 4.16663 34.3128 4.16663C40.1253 4.16663 44.917 8.47913 45.6462 14.1041C45.7295 14.5833 45.7712 15.1041 45.7712 15.625Z" stroke="#DF5E63" stroke-width="3.125" stroke-linecap="round" stroke-linejoin="round"/>
</svg>
